Coordinates
version=1
nRows=10
nColumns=22
inDegrees=yes

Units are S.I. units (second, meters, Newtons, ...)
If the header above contains a line with 'inDegrees', this indicates whether rotational values are in degrees (yes) or radians (no).

endheader
time	pelvis_tilt	pelvis_list	pelvis_rotation	pelvis_tx	pelvis_ty	pelvis_tz	hip_flexion_r	hip_adduction_r	hip_rotation_r	knee_angle_r	ankle_angle_r	subtalar_angle_r	hip_flexion_l	hip_adduction_l	hip_rotation_l	knee_angle_l	ankle_angle_l	subtalar_angle_l	lumbar_extension	lumbar_bending	lumbar_rotation
      3.68000000	      4.46271800	     -3.47880186	     13.65433002	     -1.23142348	      0.93549434	     -0.65308026	     23.21571870	      1.31699055	    -15.12462318	    -36.75711506	      6.17201044	     -0.09192147	     -8.69806271	     -2.30984745	     -4.57205344	    -16.92818915	     28.81863323	    -11.25740972	    -14.56480486	      5.80899764	    -16.48975324
      3.69000000	      4.53551499	     -3.40144845	     13.82325117	     -1.22601873	      0.93445325	     -0.65368785	     23.25749335	      1.29078462	    -15.80112735	    -34.87453434	      6.06515767	      0.18260735	     -9.23154063	     -2.33947104	     -4.47281102	    -16.76858014	     29.03852262	    -11.02600550	    -14.68717567	      5.78415102	    -16.57275715
      3.70000000	      4.58503086	     -3.31208145	     13.99761044	     -1.22041915	      0.93326463	     -0.65424412	     23.29043692	      1.27114882	    -16.50550403	    -32.94529976	      6.01616794	      0.44670344	     -9.73711025	     -2.36719443	     -4.39050002	    -16.64281899	     29.27249094	    -10.71397328	    -14.77418969	      5.73777531	    -16.69199163
      3.71000000	      4.59202853	     -3.22193363	     14.18209740	     -1.21464885	      0.93190291	     -0.65475396	     23.35077476	      1.25978127	    -17.21735984	    -31.00844352	      5.99213443	      0.65181699	    -10.18334435	     -2.39998977	     -4.32122511	    -16.56348198	     29.54507892	    -10.42349970	    -14.80399204	      5.67885192	    -16.84686586
      3.72000000	      4.62944626	     -3.12513329	     14.30109089	     -1.20866078	      0.93052365	     -0.65511435	     23.35990101	      1.31339975	    -17.77769845	    -29.06299453	      5.92906909	      0.96191801	    -10.71103531	     -2.43193277	     -4.31550234	    -16.43318191	     29.75879318	     -9.93323276	    -14.87453568	      5.60326827	    -16.89743392
      3.73000000	      4.61336158	     -3.03763253	     14.42174528	     -1.20254095	      0.92897287	     -0.65542276	     23.42946542	      1.37343787	    -18.28761190	    -27.17095281	      5.81940034	      1.19476172	    -11.15866220	     -2.47317154	     -4.32520807	    -16.36205001	     30.00977005	     -9.50180816	    -14.88202196	      5.52651006	    -16.97675773
      3.74000000	      4.55574051	     -2.96411785	     14.53276819	     -1.19627168	      0.92728903	     -0.65568943	     23.54700654	      1.44332668	    -18.74839020	    -25.34472446	      5.64708278	      1.34134793	    -11.55582064	     -2.52420086	     -4.35412398	    -16.32032388	     30.28929152	     -9.18031079	    -14.83911649	      5.45888911	    -17.06347596
      3.75000000	      4.52891662	     -2.87929427	     14.59099954	     -1.18982475	      0.92560708	     -0.65585020	     23.62718437	      1.53950943	    -19.06908766	    -23.58877806	      5.51651476	      1.55986883	    -12.02003738	     -2.56664156	     -4.42399392	    -16.25659273	     30.50645571	     -8.68795874	    -14.84698184	      5.38113198	    -17.08137660
      3.76000000	      4.45454772	     -2.82586585	     14.65569633	     -1.18322901	      0.92379441	     -0.65600569	     23.76949204	      1.63631132	    -19.40607449	    -21.93963184	      5.35188958	      1.68308611	    -12.41192340	     -2.63450944	     -4.49083660	    -16.24372107	     30.77918614	     -8.41682301	    -14.79171064	      5.33817368	    -17.13145422
      3.77000000	      4.41217705	     -2.77917200	     14.69865991	     -1.17646809	      0.92199400	     -0.65610976	     23.88106022	      1.74577106	    -19.70697479	    -20.40543152	      5.25926713	      1.84100303	    -12.84325382	     -2.71481264	     -4.55757166	    -16.24939671	     31.02224962	     -8.10954554	    -14.78333790	      5.31422795	    -17.13891570
